<svg width="38" height="38" viewBox="0 0 38 38" fill="none" xmlns="http://www.w3.org/2000/svg">
<g clip-path="url(#clip0_101_2)">
<path d="M31.768 11.128L28.472 9.08C27.768 9.336 26.68 9.464 25.688 9.464C24.696 9.464 17.976 9.464 16.568 9.464L15.096 13.112H25.88C25.368 15.48 23.512 19.32 21.336 21.816C18.52 24.984 14.968 27.768 8.44 29.752L12.216 33.112C18.232 30.744 22.072 27.8 25.112 24.088C28.024 20.536 29.848 16.28 30.712 13.4C30.968 12.6 31.416 11.736 31.768 11.128ZM21.336 6.04L16.632 4.504C16.344 5.624 15.672 7.096 15.192 7.864C13.624 10.616 10.808 14.744 5.208 18.168L8.792 20.824C13.4 17.688 17.208 13.176 19.384 9.304C19.736 8.632 20.568 7.16 21.336 6.04Z" fill="#FF3464"/>
</g>
<defs>
<clipPath id="clip0_101_2">
<rect width="38" height="38" fill="white"/>
</clipPath>
</defs>
</svg>
